<svg width="60" height="60" viewBox="0 0 60 60" fill="none" xmlns="http://www.w3.org/2000/svg">
<mask id="mask0_2021_86" style="mask-type:alpha" maskUnits="userSpaceOnUse" x="0" y="0" width="60" height="60">
<rect width="59.9624" height="59.9624" fill="#D9D9D9"/>
</mask>
<g mask="url(#mask0_2021_86)">
<path d="M20.6119 52.4669L7.49512 39.3501V20.6119L20.6119 7.49512H39.3501L52.4669 20.6119V39.3501L39.3501 52.4669H20.6119ZM22.8605 40.5994L29.981 33.4788L37.1016 40.5994L40.5994 37.1016L33.4788 29.981L40.5994 22.8605L37.1016 19.3627L29.981 26.4832L22.8605 19.3627L19.3627 22.8605L26.4832 29.981L19.3627 37.1016L22.8605 40.5994ZM22.7356 47.4701H37.2265L47.4701 37.2265V22.7356L37.2265 12.492H22.7356L12.492 22.7356V37.2265L22.7356 47.4701Z" fill="#CC2E2E"/>
</g>
</svg>
