<svg width="30" height="30" viewBox="0 0 30 30" fill="none" xmlns="http://www.w3.org/2000/svg">
<path d="M8.25 30C5.97222 30 4.02778 29.1944 2.41667 27.5833C0.805556 25.9722 0 24.0278 0 21.75C0 20.6389 0.208333 19.5833 0.625 18.5833C1.04167 17.5833 1.63889 16.6944 2.41667 15.9167L8 10.375L10.3333 12.7083L4.75 18.2917C4.27778 18.7639 3.92361 19.2986 3.6875 19.8958C3.45139 20.4931 3.33333 21.1111 3.33333 21.75C3.33333 23.1111 3.8125 24.2708 4.77083 25.2292C5.72917 26.1875 6.88889 26.6667 8.25 26.6667C8.88889 26.6667 9.51389 26.5486 10.125 26.3125C10.7361 26.0764 11.2778 25.7222 11.75 25.25L17.2917 19.6667L19.6667 22.0417L14.0833 27.5833C13.3056 28.3611 12.4167 28.9583 11.4167 29.375C10.4167 29.7917 9.36111 30 8.25 30ZM11.5417 20.8333L9.16667 18.4583L18.4583 9.16667L20.8333 11.5417L11.5417 20.8333ZM22 19.6667L19.6667 17.2917L25.25 11.75C25.7222 11.2778 26.0694 10.75 26.2917 10.1667C26.5139 9.58333 26.625 8.97222 26.625 8.33333C26.625 6.94444 26.1528 5.76389 25.2083 4.79167C24.2639 3.81944 23.0972 3.33333 21.7083 3.33333C21.0694 3.33333 20.4514 3.45139 19.8542 3.6875C19.2569 3.92361 18.7222 4.27778 18.25 4.75L12.7083 10.3333L10.3333 8L15.9167 2.41667C16.6944 1.63889 17.5833 1.04167 18.5833 0.625C19.5833 0.208333 20.6389 0 21.75 0C24.0278 0 25.9653 0.805556 27.5625 2.41667C29.1597 4.02778 29.9583 5.98611 29.9583 8.29167C29.9583 9.375 29.7569 10.4167 29.3542 11.4167C28.9514 12.4167 28.3611 13.3056 27.5833 14.0833L22 19.6667Z" fill="#FF6900"/>
</svg>
