<svg width="60" height="60" viewBox="0 0 60 60" fill="none" xmlns="http://www.w3.org/2000/svg">
<mask id="mask0_2021_63" style="mask-type:alpha" maskUnits="userSpaceOnUse" x="0" y="0" width="60" height="60">
<rect width="59.9624" height="59.9624" fill="#D9D9D9"/>
</mask>
<g mask="url(#mask0_2021_63)">
<path d="M26.4836 41.4742L44.0976 23.8602L40.5998 20.3624L26.4836 34.4786L19.3631 27.3581L15.8653 30.8559L26.4836 41.4742ZM29.9814 54.9657C26.5252 54.9657 23.2773 54.3099 20.2375 52.9982C17.1978 51.6865 14.5536 49.9064 12.305 47.6578C10.0564 45.4092 8.27626 42.7651 6.96459 39.7253C5.65291 36.6855 4.99707 33.4376 4.99707 29.9814C4.99707 26.5252 5.65291 23.2773 6.96459 20.2375C8.27626 17.1978 10.0564 14.5536 12.305 12.305C14.5536 10.0564 17.1978 8.27626 20.2375 6.96459C23.2773 5.65291 26.5252 4.99707 29.9814 4.99707C33.4376 4.99707 36.6855 5.65291 39.7253 6.96459C42.7651 8.27626 45.4092 10.0564 47.6578 12.305C49.9064 14.5536 51.6865 17.1978 52.9982 20.2375C54.3099 23.2773 54.9657 26.5252 54.9657 29.9814C54.9657 33.4376 54.3099 36.6855 52.9982 39.7253C51.6865 42.7651 49.9064 45.4092 47.6578 47.6578C45.4092 49.9064 42.7651 51.6865 39.7253 52.9982C36.6855 54.3099 33.4376 54.9657 29.9814 54.9657ZM29.9814 49.9689C35.5612 49.9689 40.2874 48.0326 44.16 44.16C48.0326 40.2874 49.9689 35.5612 49.9689 29.9814C49.9689 24.4016 48.0326 19.6754 44.16 15.8028C40.2874 11.9302 35.5612 9.99394 29.9814 9.99394C24.4016 9.99394 19.6754 11.9302 15.8028 15.8028C11.9302 19.6754 9.99394 24.4016 9.99394 29.9814C9.99394 35.5612 11.9302 40.2874 15.8028 44.16C19.6754 48.0326 24.4016 49.9689 29.9814 49.9689Z" fill="#2ECC71"/>
</g>
</svg>
