<svg width="40" height="40" viewBox="0 0 40 40" fill="none" xmlns="http://www.w3.org/2000/svg">
<path d="M10.0003 38.3332H5.00033C4.08366 38.3332 3.29894 38.0068 2.64616 37.354C1.99338 36.7012 1.66699 35.9165 1.66699 34.9998V29.9998H5.00033V34.9998H10.0003V38.3332ZM30.0003 38.3332V34.9998H35.0003V29.9998H38.3337V34.9998C38.3337 35.9165 38.0073 36.7012 37.3545 37.354C36.7017 38.0068 35.917 38.3332 35.0003 38.3332H30.0003ZM20.0003 30.8332C16.667 30.8332 13.6462 29.8471 10.9378 27.8748C8.22949 25.9026 6.25033 23.2776 5.00033 19.9998C6.25033 16.7221 8.22949 14.0971 10.9378 12.1248C13.6462 10.1526 16.667 9.1665 20.0003 9.1665C23.3337 9.1665 26.3545 10.1526 29.0628 12.1248C31.7712 14.0971 33.7503 16.7221 35.0003 19.9998C33.7503 23.2776 31.7712 25.9026 29.0628 27.8748C26.3545 29.8471 23.3337 30.8332 20.0003 30.8332ZM20.0003 27.4998C22.4448 27.4998 24.6809 26.8332 26.7087 25.4998C28.7364 24.1665 30.292 22.3332 31.3753 19.9998C30.292 17.6665 28.7364 15.8332 26.7087 14.4998C24.6809 13.1665 22.4448 12.4998 20.0003 12.4998C17.5559 12.4998 15.3198 13.1665 13.292 14.4998C11.2642 15.8332 9.70866 17.6665 8.62533 19.9998C9.70866 22.3332 11.2642 24.1665 13.292 25.4998C15.3198 26.8332 17.5559 27.4998 20.0003 27.4998ZM20.0003 25.8332C21.6114 25.8332 22.9864 25.2637 24.1253 24.1248C25.2642 22.9859 25.8337 21.6109 25.8337 19.9998C25.8337 18.3887 25.2642 17.0137 24.1253 15.8748C22.9864 14.7359 21.6114 14.1665 20.0003 14.1665C18.3892 14.1665 17.0142 14.7359 15.8753 15.8748C14.7364 17.0137 14.167 18.3887 14.167 19.9998C14.167 21.6109 14.7364 22.9859 15.8753 24.1248C17.0142 25.2637 18.3892 25.8332 20.0003 25.8332ZM20.0003 22.4998C19.3059 22.4998 18.7156 22.2568 18.2295 21.7707C17.7434 21.2846 17.5003 20.6943 17.5003 19.9998C17.5003 19.3054 17.7434 18.7151 18.2295 18.229C18.7156 17.7429 19.3059 17.4998 20.0003 17.4998C20.6948 17.4998 21.285 17.7429 21.7712 18.229C22.2573 18.7151 22.5003 19.3054 22.5003 19.9998C22.5003 20.6943 22.2573 21.2846 21.7712 21.7707C21.285 22.2568 20.6948 22.4998 20.0003 22.4998ZM1.66699 9.99984V4.99984C1.66699 4.08317 1.99338 3.29845 2.64616 2.64567C3.29894 1.99289 4.08366 1.6665 5.00033 1.6665H10.0003V4.99984H5.00033V9.99984H1.66699ZM35.0003 9.99984V4.99984H30.0003V1.6665H35.0003C35.917 1.6665 36.7017 1.99289 37.3545 2.64567C38.0073 3.29845 38.3337 4.08317 38.3337 4.99984V9.99984H35.0003Z" fill="white"/>
</svg>
